<svg xmlns="http://www.w3.org/2000/svg" version="1.1" xmlns:xlink="http://www.w3.org/1999/xlink" width="32" height="32" x="0" y="0" viewBox="0 0 32 32" style="enable-background:new 0 0 512 512" xml:space="preserve" class=""><g><path d="M26.645 8.275H25.1a1.457 1.457 0 0 1-1.364-.953l-.404-1.11A4.37 4.37 0 0 0 19.24 3.35h-6.48a4.37 4.37 0 0 0-4.09 2.863L8.264 7.32c-.208.571-.756.954-1.364.954H5.355A4.36 4.36 0 0 0 1 12.63v11.665a4.36 4.36 0 0 0 4.355 4.355h21.29A4.36 4.36 0 0 0 31 24.295V12.63a4.36 4.36 0 0 0-4.355-4.355zm1.452 16.02c0 .8-.651 1.452-1.452 1.452H5.355c-.8 0-1.452-.652-1.452-1.452V12.63c0-.8.651-1.451 1.452-1.451H6.9a4.37 4.37 0 0 0 4.091-2.863l.405-1.108c.208-.571.756-.955 1.363-.955h6.48c.606 0 1.155.384 1.363.954l.405 1.11a4.371 4.371 0 0 0 4.091 2.862h1.546c.8 0 1.452.65 1.452 1.451z" fill="currentColor" opacity="1" data-original="currentColor" class=""></path><path d="M16 11.242a6.594 6.594 0 0 0-6.587 6.587A6.594 6.594 0 0 0 16 24.416a6.594 6.594 0 0 0 6.587-6.587A6.595 6.595 0 0 0 16 11.242zm0 10.27a3.688 3.688 0 0 1-3.684-3.683A3.688 3.688 0 0 1 16 14.145a3.688 3.688 0 0 1 3.684 3.684A3.688 3.688 0 0 1 16 21.512z" fill="currentColor" opacity="1" data-original="currentColor" class=""></path></g></svg>